<?xml version="1.0" encoding="UTF-8"?>
<!DOCTYPE svg PUBLIC "-//W3C//DTD SVG 1.0//EN" "http://www.w3.org/TR/2001/REC-SVG-20010904/DTD/svg10.dtd">
<!-- Creator: CorelDRAW X7 -->
<svg xmlns="http://www.w3.org/2000/svg" xml:space="preserve" width="100%" height="100%" version="1.0" style="shape-rendering:geometricPrecision; text-rendering:geometricPrecision; image-rendering:optimizeQuality; fill-rule:evenodd; clip-rule:evenodd"
viewBox="0 0 2963 1164"
 xmlns:xlink="http://www.w3.org/1999/xlink">
 <defs>
  <style type="text/css">
   <![CDATA[
    .fil0 {fill:#0A4977}
   ]]>
  </style>
 </defs>
 <g id="Layer_x0020_1">
  <metadata id="CorelCorpID_0Corel-Layer"/>
  <g id="_2368149587216">
   <path class="fil0" d="M319 320l0 166 377 0 0 192 -377 0 0 359 -193 0c0,-303 0,-606 0,-909l575 0 0 192 -382 0z"/>
   <path class="fil0" d="M1537 320l0 -192 307 0c141,0 259,134 259,273 0,114 -70,212 -170,252l191 384 -215 0 -179 -359 -191 0 0 -192 301 0c41,0 74,-47 74,-85 0,-37 -31,-81 -69,-81l-308 0z"/>
   <path class="fil0" d="M2177 678l0 -192 660 0 0 192 -660 0z"/>
   <path class="fil0" d="M2177 320l0 -192 660 0 0 192 -660 0z"/>
   <path class="fil0" d="M2177 1037l0 -193 660 0 0 193 -660 0z"/>
   <path class="fil0" d="M782 844l0 193 395 0c192,0 295,-113 295,-274 0,-169 -124,-274 -286,-276 -103,-1 -60,-1 -158,-1 -42,-5 -76,-43 -76,-85 0,-42 31,-76 70,-82l414 1 0 -192 -414 0c-141,0 -259,134 -259,273 0,174 147,279 310,278 88,0 -23,-1 130,-1 49,0 80,34 80,85 0,42 -31,76 -70,82l-431 -1z"/>
  </g>
 </g>
</svg>
